# File created by Blade
# Date/Time:  Wed Apr 08 17:04:22 2015
# Frame Rate: 120.000 fps
#------------------------------------------------------
:FULLY-SPECIFIED
:DEGREES
1377
root 3.662322 35.938325 4.132113 -148.120281 -76.976706 176.945442
Spine -29.985086 -16.373892 -4.035678
Head 55.419059 -16.042046 -20.815272
LeftShoulder 12.271776 2.931625 25.783562
LeftArm 102.962392 41.850744 -38.833033
LeftForeArm 9.137645 -0.000000 98.590783
LeftHand -8.935972 -0.000000 -14.129682
LeftHandThumb1 -26.253704 0.000000 33.147579
RightShoulder -8.184356 -64.404527 -24.295552
RightArm 39.425034 29.227974 75.165419
RightForeArm 56.839670 -0.000000 55.581612
RightHand 14.544834 -0.000000 -33.442145
RightHandThumb1 -24.326973 -0.000000 -32.862282
LeftUpLeg -32.524090 13.019517 -4.765995
LeftLeg 20.332630 -0.000000 -0.000000
LeftFoot -18.490452 11.467120 -15.972419
LeftToeBase 8.717237 -0.000000 -0.000000
RightUpLeg -35.565705 -4.625890 -9.694551
RightLeg 16.181753 -0.000000 -0.000000
RightFoot -9.302448 5.255934 20.172079
RightToeBase 14.060229 -0.000000 -0.000000
1378
root 3.661238 35.937754 4.132553 -148.115080 -76.980274 176.949010
Spine -29.942385 -16.415927 -4.099887
Head 55.528828 -16.063123 -20.810089
LeftShoulder 12.284779 2.887532 25.785052
LeftArm 102.896805 41.956710 -38.927158
LeftForeArm 9.104233 -0.000000 98.560157
LeftHand -8.915974 0.000000 -14.200882
LeftHandThumb1 -26.253704 0.000000 33.147579
RightShoulder -8.209814 -64.424651 -24.261333
RightArm 39.316765 29.287095 74.807729
RightForeArm 55.674527 -0.000000 53.423031
RightHand 14.317787 0.000000 -34.050990
RightHandThumb1 -24.326973 -0.000000 -32.862282
LeftUpLeg -32.526409 13.015733 -4.765078
LeftLeg 20.325219 -0.000000 -0.000000
LeftFoot -18.494372 11.467852 -15.966119
LeftToeBase 8.714687 -0.000000 -0.000000
RightUpLeg -35.576823 -4.626695 -9.693451
RightLeg 16.192592 -0.000000 -0.000000
RightFoot -9.317327 5.254735 20.173258
RightToeBase 14.083682 -0.000000 -0.000000
1379
root 3.660732 35.936956 4.133159 -148.110917 -76.988401 176.949592
Spine -29.894819 -16.457371 -4.154728
Head 55.626671 -16.062407 -20.806341
LeftShoulder 12.259780 2.886005 25.736534
LeftArm 102.909818 42.011692 -38.938306
LeftForeArm 8.987678 -0.000000 98.498369
LeftHand -8.896670 -0.000000 -14.214910
LeftHandThumb1 -26.253704 0.000000 33.147579
RightShoulder -8.171246 -64.359130 -24.280426
RightArm 39.093863 29.331291 74.402739
RightForeArm 54.631391 -0.000000 51.195594
RightHand 14.306606 -0.000000 -34.313553
RightHandThumb1 -24.326973 -0.000000 -32.862282
LeftUpLeg -32.532981 13.021169 -4.769299
LeftLeg 20.326520 -0.000000 -0.000000
LeftFoot -18.501244 11.459156 -15.962998
LeftToeBase 8.717730 -0.000000 -0.000000
RightUpLeg -35.590675 -4.622769 -9.692171
RightLeg 16.216537 -0.000000 -0.000000
RightFoot -9.331875 5.235356 20.167137
RightToeBase 14.052139 -0.000000 -0.000000
1380
root 3.658758 35.936307 4.133441 -148.125372 -77.001113 176.967192
Spine -29.866461 -16.499990 -4.190944
Head 55.738948 -16.049333 -20.832637
LeftShoulder 12.236731 2.991717 25.677135
LeftArm 102.992784 41.975260 -38.890828
LeftForeArm 8.856364 0.000000 98.433232
LeftHand -8.861386 -0.000000 -14.295559
LeftHandThumb1 -26.253704 0.000000 33.147579
RightShoulder -8.124305 -64.348587 -24.299446
RightArm 38.929809 29.381922 73.998959
RightForeArm 54.049614 -0.000000 49.050168
RightHand 14.278477 -0.000000 -34.779416
RightHandThumb1 -24.326973 -0.000000 -32.862282
LeftUpLeg -32.535419 13.019490 -4.763799
LeftLeg 20.330176 -0.000000 -0.000000
LeftFoot -18.511115 11.453907 -15.961526
LeftToeBase 8.710035 -0.000000 -0.000000
RightUpLeg -35.591774 -4.586632 -9.703343
RightLeg 16.228422 -0.000000 -0.000000
RightFoot -9.369979 5.174572 20.145756
RightToeBase 14.066142 -0.000000 -0.000000
1381
root 3.655943 35.936058 4.134471 -148.111870 -77.013710 176.955006
Spine -29.836496 -16.554012 -4.223621
Head 55.826250 -15.988363 -20.837886
LeftShoulder 12.209031 3.021126 25.644157
LeftArm 103.005939 42.010479 -38.900397
LeftForeArm 8.774554 -0.000000 98.371575
LeftHand -8.791078 -0.000000 -14.317747
LeftHandThumb1 -26.253704 0.000000 33.147579
RightShoulder -8.070227 -64.328514 -24.353448
RightArm 38.775751 29.419089 73.656412
RightForeArm 53.304117 0.000000 46.923434
RightHand 14.263244 -0.000000 -35.206746
RightHandThumb1 -24.326973 -0.000000 -32.862282
LeftUpLeg -32.530784 13.010994 -4.763455
LeftLeg 20.325074 -0.000000 -0.000000
LeftFoot -18.508913 11.450775 -15.949573
LeftToeBase 8.708560 -0.000000 -0.000000
RightUpLeg -35.591995 -4.557059 -9.721084
RightLeg 16.244495 -0.000000 -0.000000
RightFoot -9.393248 5.135491 20.164463
RightToeBase 14.070849 -0.000000 -0.000000
1382
root 3.650579 35.935704 4.134874 -148.093888 -77.046306 176.926849
Spine -29.784668 -16.628117 -4.278385
Head 55.921895 -15.985721 -20.782959
LeftShoulder 12.193742 2.939957 25.749793
LeftArm 102.926268 42.185222 -38.976194
LeftForeArm 8.780517 -0.000000 98.337349
LeftHand -8.730285 -0.000000 -13.998857
LeftHandThumb1 -26.253704 0.000000 33.147579
RightShoulder -8.157821 -64.385275 -24.252885
RightArm 38.694135 29.409079 73.238024
RightForeArm 52.384704 -0.000000 44.767095
RightHand 14.226027 -0.000000 -35.588621
RightHandThumb1 -24.326973 -0.000000 -32.862282
LeftUpLeg -32.510113 12.993709 -4.755296
LeftLeg 20.317693 -0.000000 -0.000000
LeftFoot -18.511003 11.431179 -15.952104
LeftToeBase 8.733097 -0.000000 -0.000000
RightUpLeg -35.566717 -4.543349 -9.729845
RightLeg 16.251073 -0.000000 -0.000000
RightFoot -9.434266 5.077108 20.156419
RightToeBase 14.058461 -0.000000 -0.000000
1383
root 3.645834 35.934581 4.135130 -148.069143 -77.061152 176.894231
Spine -29.741040 -16.672123 -4.329671
Head 55.988052 -15.968613 -20.774016
LeftShoulder 12.213023 2.889135 25.793829
LeftArm 102.825611 42.301404 -39.090017
LeftForeArm 8.612537 -0.000000 98.274860
LeftHand -8.576575 -0.000000 -13.956841
LeftHandThumb1 -26.253704 0.000000 33.147579
RightShoulder -8.103988 -64.346681 -24.319525
RightArm 38.469066 29.370468 72.846319
RightForeArm 51.154475 -0.000000 42.633091
RightHand 14.238531 -0.000000 -36.100326
RightHandThumb1 -24.326973 -0.000000 -32.862282
LeftUpLeg -32.489981 12.982099 -4.753106
LeftLeg 20.307465 -0.000000 -0.000000
LeftFoot -18.512676 11.422011 -15.953122
LeftToeBase 8.722071 -0.000000 -0.000000
RightUpLeg -35.552276 -4.497457 -9.763196
RightLeg 16.268530 -0.000000 -0.000000
RightFoot -9.478170 5.024511 20.166640
RightToeBase 14.050742 -0.000000 -0.000000
1384
root 3.641222 35.933150 4.135798 -148.010764 -77.081345 176.824299
Spine -29.702730 -16.722442 -4.367886
Head 56.036427 -15.927851 -20.776980
LeftShoulder 12.217453 2.867823 25.752387
LeftArm 102.774050 42.370589 -39.158630
LeftForeArm 8.365320 -0.000000 98.224863
LeftHand -8.631497 -0.000000 -14.046562
LeftHandThumb1 -26.253704 0.000000 33.147579
RightShoulder -7.936086 -64.276213 -24.497802
RightArm 38.084482 29.253253 72.336865
RightForeArm 49.597411 -0.000000 40.581843
RightHand 14.129783 -0.000000 -36.659208
RightHandThumb1 -24.326973 -0.000000 -32.862282
LeftUpLeg -32.466615 12.962638 -4.755663
LeftLeg 20.296889 -0.000000 -0.000000
LeftFoot -18.517044 11.406113 -15.956275
LeftToeBase 8.718974 -0.000000 -0.000000
RightUpLeg -35.538185 -4.470546 -9.795677
RightLeg 16.295102 -0.000000 -0.000000
RightFoot -9.521918 4.984771 20.175117
RightToeBase 14.039438 -0.000000 -0.000000
1385
root 3.637302 35.931813 4.135491 -147.969284 -77.099034 176.785544
Spine -29.672649 -16.773032 -4.396933
Head 56.056101 -15.881302 -20.749738
LeftShoulder 12.206346 2.850953 25.702730
LeftArm 102.782906 42.416286 -39.168557
LeftForeArm 8.127705 -0.000000 98.161883
LeftHand -8.722883 -0.000000 -14.013260
LeftHandThumb1 -26.253704 0.000000 33.147579
RightShoulder -7.923559 -64.326375 -24.578177
RightArm 37.882318 29.005729 71.774834
RightForeArm 47.897835 -0.000000 38.395570
RightHand 13.936370 -0.000000 -37.398229
RightHandThumb1 -24.326973 -0.000000 -32.862282
LeftUpLeg -32.462857 12.962585 -4.760026
LeftLeg 20.294570 -0.000000 -0.000000
LeftFoot -18.523250 11.374451 -15.972910
LeftToeBase 8.703278 -0.000000 -0.000000
RightUpLeg -35.537876 -4.431182 -9.826264
RightLeg 16.316636 -0.000000 -0.000000
RightFoot -9.566230 4.931532 20.189686
RightToeBase 14.032260 -0.000000 -0.000000
1386
root 3.633515 35.931330 4.137148 -147.922522 -77.109156 176.744575
Spine -29.657697 -16.809117 -4.418724
Head 56.062014 -15.824395 -20.748925
LeftShoulder 12.197194 2.857988 25.638995
LeftArm 102.798366 42.432787 -39.140274
LeftForeArm 7.917800 -0.000000 98.126186
LeftHand -8.687850 0.000000 -14.041915
LeftHandThumb1 -26.253704 0.000000 33.147579
RightShoulder -7.744665 -64.268008 -24.808986
RightArm 37.444244 28.621777 71.005094
RightForeArm 45.937343 -0.000000 36.168598
RightHand 13.665457 -0.000000 -38.055593
RightHandThumb1 -24.326973 -0.000000 -32.862282
LeftUpLeg -32.460469 12.951502 -4.765170
LeftLeg 20.288835 -0.000000 -0.000000
LeftFoot -18.527698 11.356524 -15.966158
LeftToeBase 8.741845 -0.000000 -0.000000
RightUpLeg -35.538032 -4.419284 -9.848809
RightLeg 16.326186 -0.000000 -0.000000
RightFoot -9.580611 4.916214 20.205469
RightToeBase 14.006182 -0.000000 -0.000000
1387
root 3.629397 35.931399 4.137403 -147.885086 -77.142257 176.717637
Spine -29.634634 -16.857630 -4.441515
Head 56.076397 -15.783232 -20.714734
LeftShoulder 12.173617 2.895593 25.603918
LeftArm 102.892214 42.423672 -39.075014
LeftForeArm 7.685909 -0.000000 98.057962
LeftHand -8.676052 -0.000000 -14.032711
LeftHandThumb1 -26.253704 0.000000 33.147579
RightShoulder -7.664903 -64.251002 -24.899575
RightArm 37.038314 28.161054 70.096936
RightForeArm 43.625903 -0.000000 33.871305
RightHand 13.048874 0.000000 -38.992518
RightHandThumb1 -24.326973 -0.000000 -32.862282
LeftUpLeg -32.465225 12.924205 -4.760077
LeftLeg 20.282544 -0.000000 -0.000000
LeftFoot -18.520815 11.367345 -15.951386
LeftToeBase 8.722225 -0.000000 -0.000000
RightUpLeg -35.539504 -4.442737 -9.844207
RightLeg 16.338235 -0.000000 -0.000000
RightFoot -9.591022 4.917016 20.215757
RightToeBase 14.021151 -0.000000 -0.000000
1388
root 3.626438 35.932057 4.137976 -147.840251 -77.176177 176.692997
Spine -29.620844 -16.894807 -4.462078
Head 56.093788 -15.740611 -20.671312
LeftShoulder 12.172719 2.908232 25.577139
LeftArm 102.938407 42.441511 -39.046166
LeftForeArm 7.473762 -0.000000 97.974322
LeftHand -8.499561 -0.000000 -14.000513
LeftHandThumb1 -26.253704 0.000000 33.147579
RightShoulder -7.610797 -64.219216 -24.962570
RightArm 36.514602 27.469238 68.960533
RightForeArm 41.975067 -0.000000 31.473708
RightHand 13.397847 -0.000000 -38.780317
RightHandThumb1 -24.326973 -0.000000 -32.862282
LeftUpLeg -32.485263 12.902445 -4.758364
LeftLeg 20.284192 -0.000000 -0.000000
LeftFoot -18.516097 11.366335 -15.946817
LeftToeBase 8.711509 -0.000000 -0.000000
RightUpLeg -35.542509 -4.455973 -9.843285
RightLeg 16.333590 -0.000000 -0.000000
RightFoot -9.595904 4.895427 20.230546
RightToeBase 13.973970 -0.000000 -0.000000
